<svg width="132" height="132" viewBox="0 0 132 132" fill="none" xmlns="http://www.w3.org/2000/svg">
<g clip-path="url(#clip0_1_5)">
<mask id="mask0_1_5" style="mask-type:luminance" maskUnits="userSpaceOnUse" x="0" y="0" width="132" height="132">
<path d="M100 0H32C14.3269 0 0 14.3269 0 32V100C0 117.673 14.3269 132 32 132H100C117.673 132 132 117.673 132 100V32C132 14.3269 117.673 0 100 0Z" fill="white"/>
</mask>
<g mask="url(#mask0_1_5)">
<path d="M132 0H0V132H132V0Z" fill="#100943"/>
<path d="M132 66.0001C168.451 66.0001 198 36.4508 198 3.05176e-05C198 -36.4508 168.451 -66 132 -66C95.5492 -66 66 -36.4508 66 3.05176e-05C66 36.4508 95.5492 66.0001 132 66.0001Z" fill="#ED143B"/>
</g>
<path d="M17.9902 84V34.2344H29.543L50.29 64.1074C50.723 64.8138 51.0762 65.4974 51.3496 66.1582C51.6458 66.7962 51.9421 67.4684 52.2383 68.1748H52.5459C52.432 67.4229 52.3408 66.6709 52.2725 65.9189C52.2269 65.1442 52.2041 64.3581 52.2041 63.5605V34.2344H61.7061V84H49.9141L29.3721 53.8877C28.9163 53.2041 28.529 52.5205 28.21 51.8369C27.9137 51.1533 27.6403 50.4583 27.3896 49.752H27.082C27.196 50.5495 27.2871 51.3584 27.3555 52.1787C27.4238 52.9762 27.458 53.7624 27.458 54.5371V84H17.9902ZM66.0674 60.3135V57.9209C66.0674 49.7633 68.346 43.611 72.9033 39.4639C77.4606 35.2939 83.3053 33.209 90.4375 33.209C97.5241 33.209 103.392 35.2939 108.04 39.4639C112.711 43.611 115.047 49.7633 115.047 57.9209V60.3135C115.047 68.471 112.711 74.6348 108.04 78.8047C103.392 82.9518 97.5241 85.0254 90.4375 85.0254C83.3281 85.0254 77.4834 82.9518 72.9033 78.8047C68.346 74.6348 66.0674 68.471 66.0674 60.3135ZM77.2783 60.8262C77.2783 65.9076 78.4746 69.6787 80.8672 72.1396C83.2826 74.5778 86.4727 75.7969 90.4375 75.7969C94.4023 75.7969 97.6266 74.5778 100.11 72.1396C102.617 69.6787 103.87 65.9076 103.87 60.8262V57.4424C103.87 52.3382 102.617 48.5671 100.11 46.1289C97.6266 43.668 94.4023 42.4375 90.4375 42.4375C86.4727 42.4375 83.2826 43.668 80.8672 46.1289C78.4746 48.5671 77.2783 52.3382 77.2783 57.4424V60.8262Z" fill="white"/>
<path d="M17.7222 93.2476V92.6665C17.7222 90.6854 18.2866 89.1912 19.4155 88.1841C20.5444 87.1714 21.95 86.665 23.6323 86.665C25.2593 86.665 26.5238 87.0054 27.4258 87.686C28.3333 88.3667 28.8674 89.4928 29.0278 91.0645L29.0444 91.2886H26.3384L26.3218 91.0479C26.2332 90.2897 25.951 89.7446 25.4751 89.4126C24.9992 89.075 24.3794 88.9062 23.6157 88.9062C22.6584 88.9062 21.8919 89.1885 21.3164 89.7529C20.7409 90.3118 20.4531 91.236 20.4531 92.5254V93.3887C20.4531 94.8164 20.7381 95.7765 21.3081 96.269C21.8836 96.7616 22.6584 97.0078 23.6323 97.0078C24.5343 97.0078 25.2067 96.7892 25.6494 96.3521C26.0977 95.9149 26.3245 95.4251 26.3301 94.8828L26.3384 94.6255H29.0444L29.0361 94.8662C28.9919 96.2939 28.4855 97.3813 27.5171 98.1284C26.5542 98.8755 25.2593 99.249 23.6323 99.249C21.9445 99.249 20.5361 98.7537 19.4072 97.7632C18.2839 96.7671 17.7222 95.2619 17.7222 93.2476ZM29.2901 93.2476V92.6665C29.2901 90.6854 29.8435 89.1912 30.9503 88.1841C32.0571 87.1714 33.4765 86.665 35.2086 86.665C36.9296 86.665 38.3546 87.1714 39.4835 88.1841C40.6179 89.1912 41.1852 90.6854 41.1852 92.6665V93.2476C41.1852 95.2287 40.6179 96.7256 39.4835 97.7383C38.3546 98.7454 36.9296 99.249 35.2086 99.249C33.482 99.249 32.0626 98.7454 30.9503 97.7383C29.8435 96.7256 29.2901 95.2287 29.2901 93.2476ZM32.0128 93.3721C32.0128 94.6061 32.3033 95.522 32.8844 96.1196C33.471 96.7118 34.2457 97.0078 35.2086 97.0078C36.1715 97.0078 36.9545 96.7118 37.5577 96.1196C38.1664 95.522 38.4708 94.6061 38.4708 93.3721V92.5503C38.4708 91.3107 38.1664 90.3949 37.5577 89.8027C36.9545 89.2051 36.1715 88.9062 35.2086 88.9062C34.2457 88.9062 33.471 89.2051 32.8844 89.8027C32.3033 90.3949 32.0128 91.3107 32.0128 92.5503V93.3721ZM42.2775 99V86.9141H45.7058L48.7771 94.3101C48.849 94.4927 48.9182 94.6836 48.9846 94.8828C49.051 95.082 49.1008 95.2674 49.134 95.439H49.1921C49.2308 95.2674 49.2779 95.082 49.3332 94.8828C49.3941 94.6836 49.4577 94.4927 49.5241 94.3101L52.5539 86.9141H55.9738V99H53.3342V91.8696C53.3342 91.6815 53.3452 91.474 53.3674 91.2471C53.3895 91.0146 53.4089 90.8099 53.4255 90.6328H53.3259C53.2982 90.8099 53.2539 91.0146 53.1931 91.2471C53.1322 91.474 53.0658 91.6815 52.9938 91.8696L50.1301 99H47.9304L44.7595 91.5625C44.682 91.3743 44.6128 91.1668 44.552 90.9399C44.4911 90.7075 44.444 90.5028 44.4108 90.3257H44.3195C44.3361 90.5028 44.3527 90.7075 44.3693 90.9399C44.3915 91.1668 44.4025 91.3743 44.4025 91.5625V99H42.2775ZM57.5145 99V86.9141H60.9427L64.014 94.3101C64.0859 94.4927 64.1551 94.6836 64.2215 94.8828C64.2879 95.082 64.3377 95.2674 64.3709 95.439H64.429C64.4677 95.2674 64.5148 95.082 64.5701 94.8828C64.631 94.6836 64.6946 94.4927 64.761 94.3101L67.7908 86.9141H71.2107V99H68.5711V91.8696C68.5711 91.6815 68.5822 91.474 68.6043 91.2471C68.6264 91.0146 68.6458 90.8099 68.6624 90.6328H68.5628C68.5351 90.8099 68.4909 91.0146 68.43 91.2471C68.3691 91.474 68.3027 91.6815 68.2308 91.8696L65.367 99H63.1673L59.9964 91.5625C59.9189 91.3743 59.8497 91.1668 59.7889 90.9399C59.728 90.7075 59.681 90.5028 59.6478 90.3257H59.5564C59.573 90.5028 59.5896 90.7075 59.6063 90.9399C59.6284 91.1668 59.6395 91.3743 59.6395 91.5625V99H57.5145ZM72.7514 99V86.9141H81.5087V89.0972H75.3993V91.687H80.6786V93.8618H75.3993V96.8169H81.6V99H72.7514ZM82.5264 99V86.9141H85.332L90.3706 94.1689C90.4757 94.3405 90.5615 94.5065 90.6279 94.667C90.6999 94.8219 90.7718 94.9852 90.8438 95.1567H90.9185C90.8908 94.9741 90.8687 94.7915 90.8521 94.6089C90.841 94.4207 90.8354 94.2298 90.8354 94.0361V86.9141H93.1431V99H90.2793L85.2905 91.687C85.1799 91.521 85.0858 91.355 85.0083 91.189C84.9364 91.0229 84.87 90.8542 84.8091 90.6826H84.7344C84.762 90.8763 84.7842 91.0728 84.8008 91.272C84.8174 91.4657 84.8257 91.6566 84.8257 91.8447V99H82.5264ZM93.6461 89.0972V86.9141H104.138V89.0972H100.22V99H97.5724V89.0972H93.6461ZM103.836 95.4639V95.2231H106.683V95.4473C106.683 95.973 106.891 96.3714 107.306 96.6426C107.721 96.9082 108.302 97.041 109.049 97.041C109.791 97.041 110.358 96.9248 110.751 96.6924C111.149 96.4544 111.348 96.139 111.348 95.7461C111.348 95.3255 111.185 95.0156 110.859 94.8164C110.532 94.6172 109.68 94.3709 108.302 94.0776C106.941 93.7954 105.886 93.361 105.139 92.7744C104.398 92.1878 104.027 91.3605 104.027 90.2925C104.027 89.2244 104.481 88.3529 105.388 87.6777C106.301 87.0026 107.494 86.665 108.966 86.665C110.438 86.665 111.625 87.033 112.527 87.769C113.435 88.4995 113.888 89.3766 113.888 90.4004V90.6328H111.149V90.417C111.149 89.9577 110.967 89.5869 110.601 89.3047C110.242 89.0225 109.699 88.8813 108.974 88.8813C108.255 88.8813 107.724 88.9865 107.381 89.1968C107.043 89.4015 106.874 89.7031 106.874 90.1016C106.874 90.4668 107.04 90.7297 107.372 90.8901C107.71 91.0451 108.537 91.2664 109.854 91.5542C111.204 91.853 112.261 92.2957 113.025 92.8823C113.794 93.4689 114.179 94.3433 114.179 95.5054C114.179 96.6896 113.703 97.611 112.751 98.2695C111.799 98.9225 110.565 99.249 109.049 99.249C107.544 99.249 106.299 98.9198 105.314 98.2612C104.329 97.5972 103.836 96.6647 103.836 95.4639Z" fill="white"/>
</g>
<defs>
<clipPath id="clip0_1_5">
<rect width="132" height="132" fill="white"/>
</clipPath>
</defs>
</svg>
